<svg xmlns="http://www.w3.org/2000/svg" width="111.039" height="129.477" viewBox="0 0 111.039 129.477">
  <path d="M105.769 78.95c4.541-11.992 7.693-35.667 2.756-50.084-5.6-16.313-14.66-23.103-21.273-25.924a27.642 27.642 0 0 0-22.574.352A62.043 62.043 0 0 0 47.88.076c-1.719-.11-16.996-.948-25.219 7.252a11.021 11.021 0 0 0-2.733 11.375c2.072 5.6 8.575 8.818 19.333 9.7 5.842.463 9.92 2.205 12.125 5.092a12.06 12.06 0 0 1 1.829 8.818 4.5 4.5 0 0 0 0 .837c0 2.447-1.015 10.449-9.92 10.449-10.383 0-16.159-11.177-16.181-11.177-3.175-7.23-9.634-10.802-16.401-9.435A13.052 13.052 0 0 0 0 45.465c.132 9.369 3.02 27.754 20.854 45.588a93.631 93.631 0 0 0 16.313 13.557c.197.419 10.625 11.684 12.389 21.053a4.405 4.405 0 0 0 3.901 3.57c.397 0 2.733.243 6.261.243 12.83 0 41.531-2.8 51.011-26.851a4.407 4.407 0 0 0-.815-4.562c-6.195-6.701-4.41-17.459-4.145-19.113z"/>
  <path fill="#FFF" d="M8.773 45.421a4.407 4.407 0 0 1 3.748-3.725 5.021 5.021 0 0 1 1.058-.11c2.205 0 4.012 1.521 5.313 4.409.331.662 8.201 16.291 24.249 16.291 12.366 0 18.297-9.303 18.737-18.627a20.876 20.876 0 0 0-3.373-15.431c-3.77-5.137-10.029-8.068-18.583-8.818-8.553-.75-11.309-2.8-11.728-3.968a2.203 2.203 0 0 1 .706-2.094c4.541-4.365 14.88-4.74 18.363-4.607 14.549.97 20.171 5.555 20.678 5.974l.287.22.197.176c.967.738 1.84 1.589 2.602 2.535a4.41 4.41 0 1 0 6.834-5.578 24.656 24.656 0 0 0-2.579-2.711 18.655 18.655 0 0 1 8.399 1.477c7.119 3.042 12.807 10.207 16.4 20.678 4.409 12.653 1.036 36.109-3.328 45.764-4.057 8.95-12.301 20.237-28.658 23.169l-.661.109c-14.483 2.866-23.302 1.301-40.452-15.85C10.912 68.678 8.928 51.88 8.84 45.421h-.067zm48.498 75.216a46.633 46.633 0 0 0-4.894-10.206c1.651.222 3.315.332 4.981.33a61.1 61.1 0 0 0 11.86-1.345h.485a44.9 44.9 0 0 0 27.775-16.269 26.268 26.268 0 0 0 3.924 8.641c-9.126 18.1-35.183 19.069-44.066 18.826l-.065.023z"/>
</svg>
