<svg xmlns="http://www.w3.org/2000/svg" xmlns:xlink="http://www.w3.org/1999/xlink" version="1.1" x="0px" y="0px" viewBox="0 0 612 990" style="enable-background:new 0 0 612 792;" xml:space="preserve"><style type="text/css">
	.st0{fill:none;stroke:#000000;stroke-width:8;stroke-linecap:round;stroke-linejoin:round;stroke-miterlimit:10;}
	.st1{stroke:#000000;stroke-width:3;stroke-miterlimit:10;}
	.st2{fill:none;stroke:#000000;stroke-width:8;stroke-miterlimit:10;}
	.st3{fill:none;stroke:#000000;stroke-width:8;stroke-linecap:round;stroke-miterlimit:10;}
	.st4{fill:none;stroke:#000000;stroke-width:5;stroke-miterlimit:10;}
</style><path class="st0" d="M157.4,542.7c-11.4-3.3-24.3-5.6-35.2,0.6c-4.8,2.7-8.5,6.9-10.2,12.2  c-1.6,5.1-1.1,10.5,1.9,15.1c2.8,4.4,7.9,7.7,13.3,6.5c-3-0.3-6.2-0.5-9.1,0.5c-2.8,1-4.7,3.3-6,5.8c-2.4,4.4-3,9.6-2.1,14.4  c1,4.7,3.6,9.2,7.7,11.8c3.8,2.4,8.5,3,12.8,2c4.8-1.1,9.3-4.3,11.1-9c-0.7,5.2-1.2,10.8,0.3,15.9c1.4,5,5,8.9,10.1,10.1  c5.1,1.2,10.5-0.1,14.6-3.3c4.4-3.4,7.2-8.4,8.8-13.6c2.2-7.3,2.6-12,2.4-19.5"/><circle class="st1" cx="310.7" cy="433.3" r="7.2"/><circle class="st1" cx="403.8" cy="403.5" r="7.2"/><path class="st2" d="M296.5,236.4c7.6-3,16.4-2.3,23.5,1.9s12.6,11.8,14.7,20.6c4.5-10.8,13.3-19.3,23.6-22.8"/><path class="st0" d="M205.8,279.7c-20.5-4.7-39.9,12.3-38.5,33c0.4,5.7,2.2,11.3,5.5,16c-9.9-6.4-23.2-3-31.2,4.8  c-9.4,9.1-10.1,23.1-4.5,34.4c3.2,6.6,8.4,12.4,14.7,16.1c-23.9,7.7-41,37-22,58.4c4.4,5,10.5,8.5,17.3,9.1  c-10.2,3.1-17.9,12.4-19.8,22.8c-3.3,17.3,11.7,33.3,28.8,33.3c-11.5,19.5,1.3,45.3,23.7,48c-4.2,11-8.9,24.5-1.5,35.3  c6.3,9.1,32.2,17.1,44.1-1.6"/><path class="st0" d="M353.2,331.6c-9.6-9.7-14.5-23.9-12.8-37.5c1.6-13.6,9.7-26.2,21.3-33.4  c-6.5-10.5-7.4-24.3-2.4-35.6c5-11.3,15.9-19.8,28-22c-5.7-12.4-1.5-28.6,9.5-36.7c11.1-8.1,27.8-7.2,37.9,2  c10.7-6,23.3-10,35.2-7.1c11.9,2.9,22.2,14.5,20.3,26.6c11.5-3.7,25.3,3.6,28.6,15.2c3.3,11.6-4.4,25.2-16.1,28.1  c3.9,7.9,7.9,16.3,7.3,25c-0.6,8.8-7.8,17.7-16.5,17c-6.2-0.5-11.3-5.8-13.4-11.7c-2.1-5.9-1.9-12.3-1.5-18.6  c0.3-5.5,1-11.4,4.9-15.2c-7.9,5.8-19.6,5.9-27.6,0c-7.9-5.8-11.4-17-8.3-26.3c0,9.5-2.3,19.4-8.5,26.6c-6.1,7.3-16.6,11.3-25.5,8.1  c13.5,14.1,9.2,40.8-8,49.9c10.2,14.3,9.6,35.5-1.5,49.1"/><path class="st0" d="M423.5,259.8c21.6,4.1,36.9,28,31.2,48.8c17.1-0.1,33.8,10.8,40,26.4s1.8,34.7-10.8,46  c12.2,9.3,21.6,22.6,24,37.6s-3.1,31.3-15.4,40.6c6.1,10.9,10.3,23.1,9.9,35.6c-0.5,12.4-6.2,25-16.7,32.1  c-10.5,7-25.9,7.3-35.4-0.9c5.1,15.2,4.3,33.2-5.9,45.8c-10.2,12.6-31,16.9-43.6,6.6c3.5,14.3-8.1,29.6-22.7,32.6  c-14.7,3.1-30.4-4.6-38.9-16.7c1.8,15.2-7.3,31.6-21.9,37.3c-16.8,6.6-32.5-2.5-43-21.4c-11.5,22.7-29.5,23-38.5,17.7  c-12.5-7.3-16.3-24.4-13.5-38.5"/><path class="st0" d="M214.8,380.7c-14-11.3-16.3-34.3-4.9-48.2c-13.8-17.2-12.8-44.5,2.1-60.7  c-8.8-14.3-12.8-32.2-7.5-48.1c5.3-15.9,21.5-28.5,38.1-26.6c-2.1-24.1,10.8-50.7,33.9-58.2c6-1.9,12.9-2.4,18.2,0.9  c7,4.4,8.8,13.9,8,22.2c-1.2,12.2-6.9,24-15.8,32.5c10.4,7.9,15.5,22.3,12.4,35c-3.1,12.7-14.1,23.2-27,25.5  c12.9,15.6,12.6,40.5-0.6,55.9c15.6,16.2,16.5,44.4,1.9,61.5"/><path class="st3" d="M355.2,462.9c4.2,9.8,14.5,15.3,24.1,12.5c10.5-3.1,16.2-14.8,12.9-26.3"/><path class="st4" d="M853,328"/><text x="0" y="807" fill="#000000" font-size="5px" font-weight="bold" font-family="'Helvetica Neue', Helvetica, Arial-Unicode, Arial, Sans-serif">Created by Erika Kim</text><text x="0" y="812" fill="#000000" font-size="5px" font-weight="bold" font-family="'Helvetica Neue', Helvetica, Arial-Unicode, Arial, Sans-serif">from the Noun Project</text></svg>