<svg xmlns="http://www.w3.org/2000/svg" width="248" height="248" viewBox="0 0 248 248"><circle fill="#FAD02F" cx="124" cy="124" r="124"/><path fill="#FFF" d="M77.5 169.5h11v10h-11z"/><path fill="#FFF" stroke="#000" stroke-width="3" stroke-linecap="round" stroke-linejoin="round" stroke-miterlimit="10" d="M79.664 168.321c-3.215-.931-6.854-1.579-9.929.169-1.354.761-2.397 1.946-2.877 3.442-.451 1.438-.31 2.96.536 4.257.79 1.243 2.229 2.173 3.751 1.835-.846-.085-1.749-.142-2.566.141-.79.282-1.326.931-1.692 1.636-.677 1.241-.846 2.707-.593 4.062.282 1.326 1.016 2.596 2.172 3.329 1.071.676 2.397.846 3.61.563 1.354-.31 2.624-1.213 3.131-2.538-.198 1.467-.338 3.047.084 4.484.395 1.41 1.41 2.511 2.849 2.849 1.438.339 2.961-.027 4.118-.931 1.241-.959 2.031-2.368 2.482-3.835.62-2.06.733-3.385.677-5.5"/><path fill="#FFF" stroke="#000" stroke-width="3" stroke-linecap="round" stroke-linejoin="round" stroke-miterlimit="10" d="M178.678 133.316c-.677-4.23-3.328-7.982-6.77-10.605 3.554-3.188 4.795-8.575 3.047-12.975-1.75-4.4-6.461-7.475-11.283-7.447 1.607-5.867-2.707-12.608-8.8-13.765l-18.391-6.685c-2.905.987-5.389 3.385-6.657 6.431-.592-2.482-2.145-4.626-4.146-5.811a7.622 7.622 0 0 0-6.628-.536L93.466 94.139c-5.782-1.326-11.254 3.469-10.859 9.308.112 1.608.621 3.188 1.551 4.513-2.792-1.805-6.544-.846-8.8 1.354-2.651 2.567-2.849 6.516-1.269 9.703.902 1.862 2.369 3.498 4.146 4.542-6.741 2.172-11.564 10.437-6.206 16.473 1.241 1.41 2.962 2.397 4.88 2.567-2.877.873-5.049 3.496-5.585 6.43-.931 4.881 3.3 9.394 8.124 9.394-3.244 5.5.367 12.776 6.685 13.539-1.185 3.102-2.511 6.911-.423 9.957 1.772 2.559 9.039 4.806 12.408-.41-.785 3.975.288 8.788 3.81 10.846 2.539 1.494 7.616 1.411 10.859-4.992 2.962 5.331 7.39 7.897 12.128 6.036 4.119-1.607 6.686-6.233 6.177-10.521 2.398 3.413 6.826 5.585 10.974 4.711 4.117-.847 7.39-5.161 6.402-9.194 3.554 2.904 9.422 1.69 12.298-1.863 2.877-3.554 3.104-8.631 1.665-12.918 2.679 2.313 7.021 2.228 9.984.254 2.962-2.002 4.569-5.556 4.71-9.055.112-3.525-1.071-6.967-2.793-10.042 3.472-2.625 5.022-7.223 4.346-11.455z"/><path fill="#FFF" stroke="#000" stroke-width="3" stroke-linecap="round" stroke-linejoin="round" stroke-miterlimit="10" d="M134.893 108.777c-2.708-2.736-4.091-6.741-3.611-10.578.451-3.836 2.736-7.39 6.009-9.42-1.835-2.962-2.088-6.854-.678-10.042 1.411-3.188 4.485-5.585 7.898-6.206-1.608-3.498-.424-8.067 2.68-10.352 3.131-2.285 7.841-2.031 10.69.564 3.017-1.692 6.57-2.82 9.928-2.003 3.357.818 6.263 4.09 5.726 7.503 3.244-1.043 7.137 1.016 8.067 4.288.932 3.271-1.241 7.108-4.541 7.926 1.101 2.228 2.229 4.597 2.06 7.051-.169 2.482-2.201 4.993-4.654 4.795-1.75-.141-3.188-1.636-3.779-3.3-.593-1.664-.537-3.469-.424-5.246.085-1.551.283-3.216 1.383-4.287-2.229 1.636-5.529 1.664-7.785 0-2.229-1.636-3.216-4.795-2.341-7.418 0 2.68-.649 5.472-2.398 7.503-1.72 2.059-4.683 3.187-7.192 2.285 3.808 3.977 2.595 11.508-2.257 14.075 2.878 4.033 2.708 10.013-.423 13.849M95.854 122.626c-3.949-3.187-4.598-9.674-1.382-13.595-3.892-4.852-3.61-12.552.593-17.121-2.482-4.034-3.611-9.083-2.116-13.567 1.495-4.485 6.064-8.039 10.747-7.503-.592-6.798 3.046-14.301 9.562-16.417 1.692-.535 3.639-.677 5.134.254 1.974 1.241 2.481 3.92 2.256 6.262-.339 3.441-1.946 6.77-4.457 9.167 2.934 2.229 4.372 6.29 3.498 9.872-.875 3.583-3.977 6.544-7.616 7.193 3.639 4.4 3.554 11.424-.169 15.767 4.4 4.57 4.654 12.524.536 17.347"/><circle stroke="#000" stroke-width="3" stroke-miterlimit="10" cx="122.904" cy="137.463" r="2.031"/><circle stroke="#000" stroke-width="3" stroke-miterlimit="10" cx="149.165" cy="129.058" r="2.031"/><path fill="none" stroke="#000" stroke-width="3" stroke-linecap="round" stroke-miterlimit="10" d="M135.455 145.812c1.186 2.765 4.091 4.314 6.798 3.525 2.963-.874 4.57-4.174 3.64-7.418"/></svg>
