<svg xmlns="http://www.w3.org/2000/svg" width="207.841" height="251" viewBox="0 0 207.841 251"><path fill="#FFF" d="M21.77 205.914h20v18h-20z"/><path fill="#FFF" stroke="#000" stroke-width="3" stroke-linecap="round" stroke-linejoin="round" stroke-miterlimit="10" d="M25.382 204.012c-5.695-1.647-12.142-2.797-17.588.3-2.398 1.349-4.247 3.448-5.097 6.098-.799 2.547-.549 5.243.95 7.542 1.399 2.2 3.947 3.849 6.645 3.249-1.499-.15-3.097-.25-4.546.249-1.399.5-2.348 1.649-2.998 2.898-1.2 2.199-1.499 4.796-1.05 7.195.5 2.349 1.799 4.597 3.848 5.896 1.898 1.198 4.247 1.498 6.395 1 2.398-.55 4.647-2.148 5.546-4.498-.35 2.599-.599 5.397.15 7.945.699 2.497 2.498 4.447 5.047 5.045 2.548.6 5.247-.049 7.295-1.647 2.198-1.699 3.598-4.196 4.397-6.794 1.099-3.648 1.299-5.996 1.199-9.743"/><path fill="#FFF" stroke="#000" stroke-width="3" stroke-linecap="round" stroke-linejoin="round" stroke-miterlimit="10" d="M200.511 142.004c-1.199-7.495-5.896-14.141-11.992-18.787 6.295-5.646 8.494-15.189 5.397-22.984-3.1-7.794-11.444-13.241-19.987-13.191 2.848-10.393-4.796-22.334-15.589-24.383l-32.577-11.842c-5.146 1.749-9.545 5.997-11.792 11.393-1.048-4.397-3.799-8.195-7.346-10.293s-7.944-2.448-11.742-.95L49.565 72.603c-10.243-2.349-19.936 6.146-19.237 16.489.2 2.848 1.1 5.646 2.748 7.994-4.946-3.197-11.592-1.499-15.589 2.399-4.696 4.547-5.046 11.542-2.248 17.188 1.599 3.297 4.197 6.196 7.345 8.044-11.941 3.848-20.486 18.488-10.993 29.179 2.199 2.499 5.247 4.249 8.645 4.549-5.097 1.547-8.944 6.194-9.893 11.391-1.649 8.645 5.845 16.639 14.39 16.639-5.746 9.743.649 22.634 11.842 23.983-2.099 5.495-4.447 12.242-.749 17.638 3.139 4.533 16.012 8.515 21.98-.727-1.39 7.042.51 15.569 6.75 19.214 4.497 2.647 13.491 2.499 19.237-8.843 5.247 9.442 13.09 13.989 21.484 10.691 7.297-2.848 11.843-11.042 10.942-18.637 4.249 6.046 12.093 9.893 19.438 8.345 7.295-1.5 13.092-9.144 11.343-16.288 6.295 5.146 16.689 2.995 21.784-3.3 5.096-6.296 5.497-15.289 2.949-22.884 4.745 4.099 12.439 3.947 17.687.45 5.248-3.547 8.096-9.842 8.345-16.04.198-6.245-1.899-12.342-4.947-17.788 6.145-4.645 8.891-12.789 7.693-20.285z"/><path fill="#FFF" stroke="#000" stroke-width="3" stroke-linecap="round" stroke-linejoin="round" stroke-miterlimit="10" d="M123.215 98.535c-4.798-4.846-7.246-11.941-6.396-18.737.799-6.795 4.846-13.09 10.643-16.688-3.249-5.247-3.697-12.142-1.199-17.788 2.499-5.646 7.944-9.893 13.991-10.993-2.85-6.195-.75-14.291 4.747-18.337 5.545-4.048 13.89-3.598 18.937.999 5.345-2.998 11.641-4.996 17.587-3.548 5.947 1.449 11.093 7.245 10.143 13.291 5.746-1.849 12.642 1.799 14.291 7.595 1.65 5.796-2.199 12.592-8.044 14.041 1.949 3.946 3.948 8.144 3.647 12.49-.3 4.397-3.899 8.844-8.245 8.495-3.099-.25-5.646-2.898-6.694-5.846-1.05-2.947-.95-6.146-.75-9.293.15-2.748.501-5.696 2.448-7.595-3.946 2.898-9.794 2.948-13.79 0-3.947-2.898-5.696-8.494-4.147-13.141 0 4.747-1.149 9.694-4.248 13.292-3.047 3.647-8.294 5.646-12.741 4.046 6.745 7.045 4.597 20.386-3.997 24.934 5.098 7.145 4.798 17.738-.75 24.533M54.062 123.068c-6.995-5.646-8.144-17.138-2.448-24.083-6.895-8.594-6.395-22.235 1.05-30.329-4.397-7.146-6.396-16.089-3.748-24.033 2.648-7.945 10.742-14.241 19.037-13.292-1.05-12.042 5.396-25.333 16.938-29.08 2.998-.949 6.445-1.199 9.093.45 3.498 2.199 4.396 6.945 3.997 11.093-.6 6.096-3.448 11.991-7.895 16.238 5.197 3.947 7.745 11.143 6.196 17.487-1.55 6.346-7.045 11.593-13.491 12.742 6.446 7.794 6.295 20.236-.3 27.93 7.794 8.095 8.244 22.185.95 30.729"/><path fill="none" stroke="#000" stroke-width="3" stroke-linecap="round" stroke-miterlimit="10" d="M124.212 164.14c2.1 4.896 7.246 7.644 12.042 6.245 5.247-1.549 8.095-7.395 6.447-13.141"/><circle stroke="#000" stroke-width="3" stroke-miterlimit="10" cx="101.98" cy="149.35" r="3.598"/><path stroke="#000" stroke-width="3" stroke-miterlimit="10" d="M148.499 130.863a3.598 3.598 0 1 1-3.6 3.596 3.598 3.598 0 0 1 3.6-3.596z"/></svg>
