<svg xmlns="http://www.w3.org/2000/svg" width="248" height="248" viewBox="0 0 248 248">
  <circle fill="#FAD02F" cx="124" cy="124" r="124"/>
  <path d="M181.335 160.771c-6.699-7.246-4.768-18.878-4.48-20.664 4.91-12.968 8.317-38.568 2.98-54.158-6.057-17.64-15.852-24.981-23.003-28.032a29.89 29.89 0 0 0-24.409.381 67.055 67.055 0 0 0-18.164-3.479c-1.858-.12-18.378-1.025-27.269 7.841a11.92 11.92 0 0 0-2.955 12.3c2.24 6.055 9.272 9.533 20.906 10.488 6.316.501 10.726 2.384 13.11 5.506a13.041 13.041 0 0 1 1.977 9.534 4.886 4.886 0 0 0 0 .905c0 2.646-1.098 11.299-10.727 11.299-11.227 0-17.472-12.085-17.497-12.085-3.434-7.819-10.417-11.68-17.734-10.203a14.11 14.11 0 0 0-11.583 13.493c.142 10.131 3.266 30.011 22.55 49.295a101.13 101.13 0 0 0 17.639 14.656c.212.453 11.49 12.635 13.396 22.767a4.766 4.766 0 0 0 4.218 3.86c.429 0 2.955.262 6.77.262 13.874 0 44.908-3.027 55.158-29.033a4.77 4.77 0 0 0-.883-4.933z"/>
  <path fill="#FFF" d="M71.973 103.85a4.766 4.766 0 0 1 4.052-4.028 5.5 5.5 0 0 1 1.145-.117c2.385 0 4.338 1.644 5.745 4.768.358.715 8.868 17.615 26.221 17.615 13.371 0 19.784-10.06 20.26-20.141a22.582 22.582 0 0 0-3.646-16.686c-4.077-5.554-10.844-8.723-20.093-9.533-9.248-.811-12.229-3.028-12.681-4.292-.17-.837.121-1.7.763-2.264 4.911-4.721 16.089-5.125 19.856-4.981 15.732 1.049 21.811 6.007 22.359 6.459l.312.237.211.189a16.308 16.308 0 0 1 2.815 2.742 4.77 4.77 0 0 0 7.39-6.032 26.637 26.637 0 0 0-2.789-2.931 20.18 20.18 0 0 1 9.082 1.597c7.695 3.289 13.848 11.037 17.73 22.358 4.77 13.683 1.123 39.045-3.598 49.485-4.388 9.676-13.3 21.883-30.987 25.053l-.715.116c-15.661 3.1-25.197 1.407-43.741-17.138-17.376-17.33-19.522-35.493-19.617-42.478h-.074v.002zm52.44 81.332a50.32 50.32 0 0 0-5.293-11.036c1.786.239 3.584.358 5.386.356a66.03 66.03 0 0 0 12.826-1.453h.524a48.556 48.556 0 0 0 30.033-17.593 28.321 28.321 0 0 0 4.243 9.344c-9.867 19.57-38.043 20.618-47.649 20.356l-.07.026z"/>
</svg>
