<svg xmlns="http://www.w3.org/2000/svg" width="248" height="248" viewBox="0 0 248 248">
  <circle fill="#FAD02F" cx="124" cy="124" r="124"/>
  <path d="M174.614 156.653c-5.934-6.418-4.224-16.721-3.97-18.304 4.349-11.485 7.368-34.159 2.64-47.967-5.364-15.624-14.04-22.126-20.374-24.829a26.473 26.473 0 0 0-21.619.338 59.44 59.44 0 0 0-16.088-3.082c-1.646-.106-16.277-.908-24.152 6.945a10.555 10.555 0 0 0-2.617 10.894c1.984 5.363 8.212 8.444 18.516 9.289 5.595.444 9.5 2.112 11.612 4.877a11.553 11.553 0 0 1 1.751 8.445 4.287 4.287 0 0 0 0 .801c0 2.344-.972 10.008-9.501 10.008-9.944 0-15.475-10.704-15.497-10.704-3.041-6.925-9.226-10.345-15.707-9.037a12.5 12.5 0 0 0-10.26 11.951c.126 8.973 2.893 26.581 19.973 43.661a89.582 89.582 0 0 0 15.623 12.982c.188.401 10.176 11.19 11.865 20.164a4.22 4.22 0 0 0 3.736 3.419c.38 0 2.617.232 5.996.232 12.288 0 39.775-2.682 48.854-25.715a4.222 4.222 0 0 0-.781-4.368z"/>
  <path fill="#FFF" d="M77.75 106.237a4.22 4.22 0 0 1 3.589-3.568c.333-.07.673-.105 1.014-.104 2.112 0 3.842 1.456 5.088 4.223.317.634 7.854 15.602 23.224 15.602 11.843 0 17.523-8.91 17.945-17.839a20 20 0 0 0-3.23-14.779c-3.611-4.919-9.605-7.726-17.797-8.444-8.191-.718-10.831-2.682-11.232-3.801a2.11 2.11 0 0 1 .676-2.005c4.349-4.181 14.25-4.54 17.587-4.412 13.934.929 19.317 5.32 19.804 5.721l.275.21.188.168a14.469 14.469 0 0 1 2.493 2.428 4.225 4.225 0 0 0 6.545-5.342 23.676 23.676 0 0 0-2.47-2.596 17.873 17.873 0 0 1 8.044 1.415c6.816 2.913 12.265 9.775 15.705 19.803 4.224 12.119.993 34.583-3.187 43.829-3.887 8.571-11.78 19.382-27.446 22.189l-.634.104c-13.87 2.745-22.316 1.246-38.741-15.179-15.39-15.35-17.291-31.437-17.375-37.623h-.065zm46.447 72.036a44.598 44.598 0 0 0-4.688-9.774 35.56 35.56 0 0 0 4.77.315 58.544 58.544 0 0 0 11.359-1.287h.465a43.005 43.005 0 0 0 26.601-15.582 25.092 25.092 0 0 0 3.759 8.276c-8.741 17.334-33.696 18.262-42.204 18.03l-.062.022z"/>
</svg>
